# xmcd CD database file
#
# Track frame offsets:
#	150
#	18753
#	38014
#
# Disc length: 800 seconds
#
# Revision: 2
# Processed by: cddbd v1.5.2PL0 Copyright (c) Steve Scherf et al.
# Submitted via: CDex 1.70beta3
#
DISCID=14031e03
DTITLE=Girls Dead Monster - Crow Song
DYEAR=2010
DGENRE=JPop
TTITLE0=Crow song
TTITLE1=Alchemy
TTITLE2=My song
EXTD=YEAR: 2010
EXTT0=
EXTT1=
EXTT2=
PLAYORDER=
